<?xml version="1.0"?>
<svg xmlns="http://www.w3.org/2000/svg" viewBox="0 -16 512 512" width="512px" height="512px"><path d="m481 30h-256c-124.070312 0-225 100.929688-225 225s100.929688 225 225 225 225-100.929688 225-225c0-25.910156-4.386719-51.03125-12.886719-75h-138.863281c19.53125 19.078125 31.75 45.609375 31.75 75 0 57.890625-47.109375 105-105 105s-105-47.109375-105-105 47.109375-105 105-105h256v30h31v-180h-31zm0 0" fill="#f05f40"/><path d="m298.757812 267.269531c.667969-4.015625 1.242188-8.066406 1.242188-12.269531 0-10.449219-2.171875-20.390625-6.050781-29.433594l-14.722657.882813c-5.765624.351562-11.253906 1.976562-16.363281 4.4375 2.515625 3.941406 4.367188 8.304687 5.5625 12.941406 12.023438 4.980469 22.410157 13.035156 30.332031 23.441406zm0 0" fill="#f05f40"/><path d="m151.242188 242.730469c-.667969 4.015625-1.242188 8.066406-1.242188 12.269531 0 10.449219 2.171875 20.390625 6.050781 29.433594l14.722657-.882813c5.765624-.351562 11.253906-1.976562 16.363281-4.4375-2.515625-3.941406-4.367188-8.304687-5.5625-12.941406-12.023438-4.980469-22.410157-13.035156-30.332031-23.441406zm0 0" fill="#f05f40"/><path d="m233.824219 180.894531-6.4375 12.859375c-2.585938 5.183594-3.917969 10.769532-4.328125 16.441406.65625-.027343 1.277344-.195312 1.941406-.195312 4.1875 0 8.164062.761719 12.015625 1.835938 10.273437-7.898438 22.382813-12.851563 35.300781-14.542969-10.78125-8.855469-23.945312-14.664063-38.492187-16.398438zm0 0" fill="#f05f40"/><path d="m193.601562 222.859375c-1.675781-12.855469.113282-25.824219 5.132813-37.859375-13.492187 5.082031-25.039063 13.894531-33.550781 25.242188l7.976562 12.078124c3.210938 4.847657 7.394532 8.792969 12.113282 11.992188 2.214843-4.234375 4.941406-8.144531 8.328124-11.453125zm0 0" fill="#f05f40"/><path d="m284.816406 299.757812-7.976562-12.078124c-3.210938-4.847657-7.394532-8.796876-12.113282-11.992188-2.214843 4.234375-4.941406 8.144531-8.328124 11.453125 1.675781 12.855469-.113282 25.824219-5.132813 37.855469 13.492187-5.078125 25.035156-13.890625 33.550781-25.238282zm0 0" fill="#f05f40"/><path d="m240 255c0-8.277344-6.722656-15-15-15s-15 6.722656-15 15 6.722656 15 15 15 15-6.722656 15-15zm0 0" fill="#f05f40"/><path d="m222.613281 316.246094c2.585938-5.183594 3.917969-10.769532 4.328125-16.441406-.65625.027343-1.277344.195312-1.941406.195312-4.1875 0-8.164062-.761719-12.015625-1.835938-10.273437 7.898438-22.382813 12.851563-35.300781 14.542969 10.78125 8.855469 23.949218 14.667969 38.492187 16.402344zm0 0" fill="#f05f40"/><path d="m450 435c0-13.78125-6.324219-25.964844-16.085938-34.21875-17.191406 24.566406-38.566406 45.941406-63.132812 63.132812 8.253906 9.761719 20.4375 16.085938 34.21875 16.085938 24.851562 0 45-20.148438 45-45zm0 0" fill="#f05f40"/><path d="m79.21875 46.085938c-8.253906-9.761719-20.4375-16.085938-34.21875-16.085938-24.851562 0-45 20.148438-45 45 0 13.78125 6.324219 25.964844 16.085938 34.21875 17.191406-24.566406 38.566406-45.941406 63.132812-63.132812zm0 0" fill="#f05f40"/><path d="m16.085938 400.78125c-9.761719 8.253906-16.085938 20.4375-16.085938 34.21875 0 24.851562 20.148438 45 45 45 13.78125 0 25.964844-6.324219 34.21875-16.085938-24.566406-17.191406-45.941406-38.566406-63.132812-63.132812zm0 0" fill="#f05f40"/></svg>
