<?xml version="1.0" encoding="iso-8859-1"?>
<!-- Generator: Adobe Illustrator 19.0.0, SVG Export Plug-In . SVG Version: 6.00 Build 0)  -->
<svg version="1.1" id="Capa_1" xmlns="http://www.w3.org/2000/svg" xmlns:xlink="http://www.w3.org/1999/xlink" x="0px" y="0px"
	 viewBox="0 0 512 512" style="enable-background:new 0 0 512 512;" xml:space="preserve">
<path style="fill:#303C42;" d="M426.667,0h-384C19.135,0,0,19.135,0,42.667v384c0,23.531,19.135,42.667,42.667,42.667h384
	c23.531,0,42.667-19.135,42.667-42.667v-384C469.333,19.135,450.198,0,426.667,0z"/>
<g>
	<path id="SVGCleanerId_0" style="fill:#5C6671;" d="M42.667,21.333h384c11.76,0,21.333,9.573,21.333,21.333v42.667H21.333V42.667
		C21.333,30.906,30.906,21.333,42.667,21.333z"/>
</g>
<g>
	
		<linearGradient id="SVGCleanerId_0_3_" gradientUnits="userSpaceOnUse" x1="-44.263" y1="647.7943" x2="-26.9841" y2="639.7372" gradientTransform="matrix(21.3333 0 0 -21.3333 996.3334 13791.667)">
		<stop  offset="0" style="stop-color:#FFFFFF;stop-opacity:0.2"/>
		<stop  offset="1" style="stop-color:#FFFFFF;stop-opacity:0"/>
	</linearGradient>
	<path id="SVGCleanerId_0_1_" style="fill:url(#SVGCleanerId_0_3_);" d="M42.667,21.333h384c11.76,0,21.333,9.573,21.333,21.333
		v42.667H21.333V42.667C21.333,30.906,30.906,21.333,42.667,21.333z"/>
</g>
<g>
	
		<linearGradient id="SVGCleanerId_0_4_" gradientUnits="userSpaceOnUse" x1="-41.3061" y1="649.2945" x2="-30.1002" y2="638.0877" gradientTransform="matrix(21.3333 0 0 -21.3333 996.3334 13791.667)">
		<stop  offset="0" style="stop-color:#FFFFFF;stop-opacity:0.2"/>
		<stop  offset="1" style="stop-color:#FFFFFF;stop-opacity:0"/>
	</linearGradient>
	<path id="SVGCleanerId_0_2_" style="fill:url(#SVGCleanerId_0_4_);" d="M42.667,21.333h384c11.76,0,21.333,9.573,21.333,21.333
		v42.667H21.333V42.667C21.333,30.906,30.906,21.333,42.667,21.333z"/>
</g>
<path style="fill:#FFFFFF;" d="M426.667,448h-384c-11.76,0-21.333-9.573-21.333-21.333v-320H448v320
	C448,438.427,438.427,448,426.667,448z"/>
<g>
	<circle style="fill:#303C42;" cx="53.333" cy="53.333" r="10.667"/>
	<circle style="fill:#303C42;" cx="96" cy="53.333" r="10.667"/>
	<circle style="fill:#303C42;" cx="138.667" cy="53.333" r="10.667"/>
	<circle style="fill:#303C42;" cx="394.667" cy="394.667" r="117.333"/>
</g>
<circle style="fill:#00B5EF;" cx="394.667" cy="394.667" r="96"/>
<g>
	<path style="fill:#303C42;" d="M368.583,382.208c4.906-3.271,6.229-9.885,2.958-14.792c-3.281-4.917-9.875-6.229-14.792-2.958
		l-9.906,6.604c8.729-17.604,26.885-29.729,47.823-29.729c17.75,0,34.281,8.792,44.24,23.521c3.281,4.885,9.927,6.167,14.802,2.865
		c4.885-3.292,6.167-9.927,2.865-14.802C442.656,332.302,419.51,320,394.667,320C353.5,320,320,353.5,320,394.667
		c0,3.938,2.167,7.552,5.635,9.406c1.573,0.844,3.302,1.26,5.031,1.26c2.073,0,4.135-0.604,5.917-1.792L368.583,382.208z"/>
	<path style="fill:#303C42;" d="M463.698,385.26c-3.469-1.854-7.688-1.656-10.948,0.531l-32,21.333
		c-4.906,3.271-6.229,9.885-2.958,14.792c3.25,4.896,9.875,6.198,14.792,2.958l9.906-6.604C433.76,435.875,415.604,448,394.667,448
		c-17.75,0-34.281-8.792-44.24-23.521c-3.281-4.885-9.927-6.167-14.802-2.865c-4.885,3.292-6.167,9.927-2.865,14.802
		c13.917,20.615,37.063,32.917,61.906,32.917c41.167,0,74.667-33.5,74.667-74.667C469.333,390.729,467.167,387.115,463.698,385.26z"
		/>
</g>
<linearGradient id="SVGID_1_" gradientUnits="userSpaceOnUse" x1="-48.3555" y1="641.3841" x2="-21.6855" y2="628.9481" gradientTransform="matrix(21.3333 0 0 -21.3333 996.3334 13791.667)">
	<stop  offset="0" style="stop-color:#FFFFFF;stop-opacity:0.2"/>
	<stop  offset="1" style="stop-color:#FFFFFF;stop-opacity:0"/>
</linearGradient>
<path style="fill:url(#SVGID_1_);" d="M469.333,304.225V42.667C469.333,19.135,450.198,0,426.667,0h-384C19.135,0,0,19.135,0,42.667
	v384c0,23.531,19.135,42.667,42.667,42.667h261.56C325.764,495.375,358.307,512,394.667,512C459.368,512,512,459.367,512,394.667
	C512,358.307,495.376,325.763,469.333,304.225z"/>
<g>
</g>
<g>
</g>
<g>
</g>
<g>
</g>
<g>
</g>
<g>
</g>
<g>
</g>
<g>
</g>
<g>
</g>
<g>
</g>
<g>
</g>
<g>
</g>
<g>
</g>
<g>
</g>
<g>
</g>
</svg>
